<?xml version="1.0" encoding="UTF-8"?>
<svg width="229px" height="118px" viewBox="0 0 229 118" version="1.1" xmlns="http://www.w3.org/2000/svg" xmlns:xlink="http://www.w3.org/1999/xlink">
    <!-- Generator: Sketch 61 (89581) - https://sketch.com -->
    <title>bottom-signup-accent</title>
    <desc>Created with Sketch.</desc>
    <g id="All" stroke="none" stroke-width="1" fill="none" fill-rule="evenodd">
        <g id="Home" transform="translate(0.000000, -4070.000000)">
            <g id="Group" transform="translate(0.000000, 4070.000000)">
                <g id="Group-9">
                    <g id="Fill-6-+-Fill-7-Mask">
                        <g id="bottom-signup-accent" transform="translate(-81.000000, -16.000000)">
                            <path d="M81.0060376,26.1485642 L81.0060376,26.1340904 C80.0103325,26.1003183 75.8623477,26.1003183 74.8619236,26.1340904 L74.8619236,26.1485642 C33.3160099,27.8178707 4.26325641e-14,61.9228656 4.26325641e-14,104.408165 C4.26325641e-14,114.404707 1.82152688,124.980198 6.43669086,132.742956 C6.62545012,133.056554 6.96521679,133.244713 7.32385939,133.244713 L55.297026,133.244713 C55.6745445,133.244713 55.8302709,132.800851 55.547132,132.554797 C48.1996777,126.171871 43.6694554,116.358664 43.6694554,104.466061 C43.6694554,83.0979713 58.5531233,67.6375871 77.9339806,67.5917536 C97.3195569,67.6375871 112.198506,83.0979713 112.198506,104.466061 C112.198506,116.358664 107.665924,126.171871 100.325548,132.554797 C100.03769,132.800851 100.195776,133.244713 100.570935,133.244713 L148.544102,133.244713 C148.902744,133.244713 149.242511,133.056554 149.43127,132.742956 C154.046434,124.980198 155.867961,114.404707 155.867961,104.408165 C155.867961,61.9228656 122.551951,27.8178707 81.0060376,26.1485642" id="Fill-6" fill="#1D1D44"></path>
                            <path d="M302.589338,0.499110328 C302.400582,0.187166373 302.063179,-8.52651283e-14 301.702183,-8.52651283e-14 L254.944862,-8.52651283e-14 C254.567349,-8.52651283e-14 254.409265,0.441520675 254.6924,0.691075839 C255.360126,1.26697237 255.9901,1.87166373 256.589402,2.50514992 C262.61781,8.86400747 265.364215,17.9583735 265.364215,28.7804292 C265.364215,50.1461906 250.478413,65.6042134 231.097849,65.6522047 C211.714926,65.6042134 196.833843,50.1461906 196.833843,28.7804292 C196.833843,17.3392848 199.903494,7.82739371 206.67513,1.43494219 C206.941748,1.18538703 207.215445,0.935831866 207.500939,0.691075839 C207.784074,0.441520675 207.62599,-8.52651283e-14 207.248478,-8.52651283e-14 L160.491157,-8.52651283e-14 C160.13016,-8.52651283e-14 159.792758,0.187166373 159.604001,0.499110328 C154.984188,8.26411525 153.165049,18.8366158 153.165049,28.8380189 C153.165049,71.3775761 184.03144,105.518642 228.023479,107.102358 L228.023479,107.107157 C229.023888,107.14555 233.169451,107.14555 234.165141,107.107157 L234.165141,107.102358 C278.036848,105.513843 309.03301,71.372777 309.03301,28.8380189 C309.03301,18.8366158 307.209151,8.26411525 302.589338,0.499110328" id="Fill-7" fill="#154F4A"></path>
                        </g>
                    </g>
                </g>
            </g>
        </g>
    </g>
</svg>