<?xml version="1.0" encoding="utf-8"?>
<!-- Generator: Adobe Illustrator 16.0.4, SVG Export Plug-In . SVG Version: 6.00 Build 0)  -->
<!DOCTYPE svg PUBLIC "-//W3C//DTD SVG 1.1//EN" "http://www.w3.org/Graphics/SVG/1.1/DTD/svg11.dtd">
<svg version="1.1" id="Layer_1" xmlns="http://www.w3.org/2000/svg" xmlns:xlink="http://www.w3.org/1999/xlink" x="0px" y="0px"
	 width="414px" height="412px" viewBox="0 0 414 412" style="enable-background:new 0 0 414 412;" xml:space="preserve">
<style type="text/css">
<![CDATA[
	.st0{fill:#FFFFFF;}
]]>
</style>
<path class="st0" d="M286.5,410.9c0-52.9,0-105.5,0-158.5c1.7,0,3.1,0,4.5,0c14.7,0,29.4-0.1,44,0.1c3.3,0,4.6-0.9,5-4.2
	c1.9-15.6,3.9-31.2,5.9-46.8c0.5-3.7,0.9-7.4,1.5-11.7c-20.7,0-40.8,0-60.7,0c0-16.3-0.4-32.2,0.2-48c0.3-8.9,4.9-16.1,14.1-18.7
	c4.5-1.3,9.3-2,14.1-2.1c10.4-0.3,20.8-0.2,31.1-0.1c2.6,0,3.5-0.7,3.5-3.4c-0.1-16.5-0.1-32.9,0-49.4c0-2.9-1.1-3.8-3.6-3.9
	c-6.1-0.4-12.1-1.1-18.2-1.2c-13.2-0.1-26.6-1-39.7,0.4c-38,3.9-63.7,30.1-66.3,71.4c-1.1,16.8-0.5,33.6-0.7,50.5
	c0,1.5-0.2,3-0.2,4.7c-1.7,0-3,0-4.3,0c-15.2,0-30.3,0.1-45.5-0.1c-3,0-3.9,0.9-3.8,3.8c0.1,18.3,0.1,36.5,0,54.8
	c0,3.2,0.9,4.1,4.1,4.1c15-0.1,30.1-0.1,45.1-0.1c1.4,0,2.8,0,4.3,0c0,53.1,0,105.7,0,158.6"/>
</svg>
