<svg width="160px" height="34px" viewBox="0 0 432 144" version="1.1" xmlns="http://www.w3.org/2000/svg" xmlns:xlink="http://www.w3.org/1999/xlink" data-v-3df763b2="" data-v-0fb13a60=""><title data-v-3df763b2="">Balloon_Logo_Dark</title> <g fill="#f9f4ec" fill-rule="evenodd" data-v-3df763b2=""><path d="M70.916 71.055c9.174 1.786 12.634 10.321 12.634 17.27 0 12.743-8.842 21.164-24.952 21.164H28.172c-.232 0-.422-.187-.422-.421V36.099c0-.234.19-.422.424-.422l27.368.104c15.374.106 24.848 7.792 24.848 20.533 0 5.688-1.682 11.794-9.474 14.741zM52.7 66.002c8.844 0 11.056-3.894 11.056-8.108 0-4.843-4.002-7.266-9.16-7.266h-9.372c-.232 0-.422.189-.422.421v14.53c0 .233.19.423.422.423H52.7zm-7.898 12.847v15.163c0 .231.19.422.422.422h12.952c5.474 0 8.74-2.95 8.74-7.162s-2.844-8.845-13.584-8.845h-8.108c-.232 0-.422.188-.422.422z" data-v-3df763b2=""></path> <path d="M148.625 55.367v53.702c0 .232-.188.419-.42.419h-16.276c-.232 0-.422-.187-.422-.419v-6.522c0-.164-.204-.223-.298-.086-3.48 5.104-8.762 8.188-16.232 8.188-15.69 0-26.323-12.428-26.323-28.539 0-15.792 10.213-28.323 26.217-28.323 6.958 0 12.92 3.184 16.344 8.002.094.132.292.071.292-.092v-6.33c0-.232.19-.423.422-.423h16.276c.232 0 .42.191.42.423m-30.002 41.066c7.16 0 12.188-5.16 12.188-13.794 0-8.288-4.194-13.925-11.228-14.485-6.924-.551-12.672 5.149-13.298 12.067-.804 8.874 4.056 16.212 12.338 16.212" data-v-3df763b2=""></path> <path d="M159.168 109.069V33.78c0-.232.188-.42.422-.42h17.268c.232 0 .422.188.422.42v75.289c0 .232-.19.421-.422.421H159.59c-.234 0-.422-.189-.422-.421" data-v-3df763b2=""></path> <path d="M188.632 109.069V33.78c0-.232.187-.42.422-.42h17.268c.232 0 .42.188.42.42v75.289c0 .232-.188.421-.42.421h-17.268c-.235 0-.422-.189-.422-.421" data-v-3df763b2=""></path> <path d="M351.106 54.945h17.268c.234 0 .422.188.422.422v6.222c0 .164.204.218.298.084 3.87-5.486 9.143-7.886 15.918-7.886 15.899 0 19.267 13.268 19.267 25.166v30.116c0 .232-.187.42-.42.42H386.59c-.232 0-.42-.188-.42-.42V80.007c0-5.266-2.002-11.69-8.635-11.69-6.529 0-8.739 5.476-8.739 11.69v29.062c0 .232-.188.42-.422.42h-17.268c-.232 0-.422-.188-.422-.42V55.367c0-.234.19-.422.422-.422" data-v-3df763b2=""></path> <path d="M247.813 65.08v-.006c-.422-.014-2.18-.014-2.604 0v.006c-17.608.692-31.728 14.83-31.728 32.442 0 4.144.772 8.528 2.728 11.746.08.13.224.208.376.208h20.332c.16 0 .226-.184.106-.286-3.114-2.646-5.034-6.714-5.034-11.644 0-8.858 6.308-15.267 14.522-15.286 8.216.019 14.522 6.428 14.522 15.286 0 4.93-1.921 8.998-5.032 11.644-.122.102-.055.286.104.286h20.332c.152 0 .296-.078.376-.208 1.956-3.218 2.728-7.602 2.728-11.746 0-17.612-14.12-31.75-31.728-32.442" class="a" data-v-3df763b2=""></path> <path d="M341.618 55.168c-.08-.13-.223-.208-.376-.208h-19.817c-.16 0-.227.184-.107.288.283.24.55.492.804.756 2.555 2.65 3.719 6.44 3.719 10.95 0 8.904-6.309 15.346-14.523 15.366-8.215-.02-14.522-6.462-14.522-15.366 0-4.768 1.301-8.732 4.171-11.396.113-.104.229-.208.35-.31.12-.104.053-.288-.107-.288h-19.817c-.153 0-.296.078-.376.208-1.958 3.236-2.729 7.642-2.729 11.81 0 17.728 13.082 31.956 31.727 32.616v.002c.424.016 2.181.016 2.603 0v-.002c18.594-.662 31.731-14.89 31.731-32.616 0-4.168-.773-8.574-2.731-11.81" class="b" data-v-3df763b2=""></path></g></svg>