<?xml version="1.0" encoding="utf-8"?>
<!-- Generator: Adobe Illustrator 16.0.4, SVG Export Plug-In . SVG Version: 6.00 Build 0)  -->
<!DOCTYPE svg PUBLIC "-//W3C//DTD SVG 1.1//EN" "http://www.w3.org/Graphics/SVG/1.1/DTD/svg11.dtd">
<svg version="1.1" id="Layer_1" xmlns="http://www.w3.org/2000/svg" xmlns:xlink="http://www.w3.org/1999/xlink" x="0px" y="0px"
	 width="429px" height="430px" viewBox="0 0 429 430" style="enable-background:new 0 0 429 430;" xml:space="preserve">
<style type="text/css">
<![CDATA[
	.st0{fill:#FFFFFF;}
]]>
</style>
<path class="st0" d="M420,92.1c0,0.1,0,0.3,0,0.3c0,0.1-0.1,0.1-0.3,0.3c0,0.1-0.1,0.1-0.1,0.3c-5.5,8-11.4,15.4-17.9,22.2
	c-6.5,6.8-13.7,13.1-21.4,18.8c-0.6,0.4-0.9,0.7-1,1.3c-0.1,0.4-0.3,1-0.3,1.6c0,2.7,0.1,5.3,0.1,8c0,2.7,0,5.3-0.1,8
	c-0.1,4-0.4,7.8-0.7,11.8c-0.3,3.8-0.7,7.8-1.2,11.7c-1.6,12.3-4.3,24.4-7.7,36c-3.5,11.8-7.8,23.3-13.1,34.6
	c-6.9,14.9-15.2,29-24.8,42c-9.6,13-20.5,25-32.9,35.9c-7.8,6.9-16.2,13.4-25,19.2c-8.7,5.8-17.9,10.9-27.3,15.4
	c-13.3,6.2-26.7,11.1-40.8,14.6c-13.9,3.5-28.2,5.8-42.7,6.8c-1.2,0.1-2.5,0.1-3.7,0.3c-1.2,0.1-2.5,0.3-3.7,0.3
	c-3.8,0-7.7,0-11.5,0s-7.7,0-11.5,0c-0.3,0-0.6-0.1-0.9-0.1c-0.3,0-0.6-0.1-0.9-0.1c-3.4-0.3-6.8-0.6-10.2-0.9s-6.8-0.6-10.2-1
	c-16.1-2.4-31.6-6.2-46.7-11.5c-14.9-5.5-29.4-12.4-43.3-20.8c-0.6-0.4-1.3-0.7-1.9-1c-0.6-0.3-1.3-0.7-1.9-1c0-0.1,0-0.3,0-0.3
	v-0.3c0.1,0,0.3,0.1,0.6,0.1c0.1,0,0.3,0.1,0.6,0.1c3.5,0.1,7.1,0.4,10.6,0.6c3.5,0.1,7.1,0.3,10.6,0.3c3.7,0,7.2-0.1,10.9-0.4
	c3.7-0.3,7.2-0.6,10.8-1.2c14.2-2.1,27.6-5.8,40.3-11.1c12.7-5.3,24.8-12.4,36.2-21c0.1-0.1,0.4-0.3,0.6-0.4
	c0.1-0.1,0.4-0.4,0.7-0.7c-8.9-0.3-17.3-1.9-25.3-4.6c-8-2.8-15.4-6.8-22.3-12c-6.9-5.3-12.9-11.2-17.7-18.2
	c-4.9-6.8-8.7-14.5-11.5-23c6.2,1,12.1,1.5,18.2,1.3c5.9-0.1,11.8-1,17.7-2.5c-9.5-2.4-18.2-5.9-26-10.9
	c-7.8-4.9-14.8-11.2-20.8-18.9c-6.1-7.7-10.5-15.8-13.6-24.5c-3-8.7-4.4-17.9-4.4-27.6c3.1,1.2,6.1,2.4,9,3.5c3,1.2,5.9,2.2,8.9,3.2
	c3,0.9,5.9,1.6,9,2.1c3.1,0.4,6.2,0.7,9.3,0.6c-8.6-6.4-15.8-13.7-21.4-22.2c-5.6-8.4-9.6-17.7-12-28.2s-2.7-20.7-1.2-30.7
	c1.6-10,5-19.6,10.3-29.3c0.4,0.6,0.9,0.9,1.3,1.3c0.3,0.4,0.7,0.7,1,1c4.7,5.8,9.8,11.2,15.1,16.4s10.8,10.2,16.5,14.9
	c14.5,11.8,29.8,21.6,46.1,29.5c16.2,8,33.5,13.9,51.7,18c6.1,1.3,12.1,2.5,18.2,3.3c6.1,0.9,12.3,1.5,18.3,1.8c1.2,0,1.9,0,2.2-0.3
	c0.3-0.3,0.1-1,0-2.2c-0.6-3.1-1-6.4-1.2-9.5c-0.3-3.1-0.3-6.4-0.1-9.6c0.1-6.6,1.2-13.1,3-19.5c1.8-6.2,4.3-12.3,7.5-18
	c5.8-10.2,13-18.6,21.6-25.3c8.6-6.6,18.5-11.5,29.8-14.6c2.2-0.6,4.4-1,6.6-1.5c2.2-0.4,4.4-0.7,6.8-1.2c2.5,0,5,0,7.7,0
	c2.7,0,5,0,7.7,0c0.1,0,0.4,0.1,0.6,0.1c0.1,0,0.4,0.1,0.6,0.1c9.6,1,18.5,3.5,26.7,7.5c8.3,3.8,15.8,9.3,22.8,16
	c0.9,0.9,1.6,1.3,2.5,1.6c0.9,0.3,1.9,0.3,3.1,0c8.3-1.9,16.4-4.3,24.4-7.4c7.8-3.1,15.5-6.6,22.9-10.9c0.3-0.1,0.6-0.3,0.7-0.4
	c0.3-0.1,0.6-0.3,0.9-0.4c-1.3,4.7-3.1,9.3-5.3,13.4c-2.2,4.3-4.9,8.3-7.7,12c-3,3.8-6.2,7.2-9.7,10.5c-3.5,3.2-7.2,6.2-11.2,8.9
	c8-0.9,15.7-2.4,23.2-4.4c7.5-2.1,14.9-4.7,22.2-8C420,91.9,420,91.9,420,92.1z"/>
</svg>
